<svg xmlns="http://www.w3.org/2000/svg" width="32" height="51" viewBox="0 0 32 51" fill="none">
  <path d="M28.2736 48.6402C24.8257 51.1029 21.5009 49.6663 20.2695 48.6402L14.3177 44.7407L9.03032 40.8413C8.20939 40.4308 5.80044 38.3785 5.13089 35.7105C4.50536 33.2179 5.67818 29.6903 6.77276 28.5273L14.3177 25.4489L14.7282 25.6541C27.5347 33.0425 30.9416 36.121 30.5311 39.8151V43.3041C30.5995 44.6039 30.2438 47.4908 28.2736 48.6402Z" fill="url(#paint0_linear_4_24)" stroke="#FFB742"/>
  <path d="M0 19.7676L0 30.4397C0.615698 36.6497 8.82501 41.2518 9.03024 40.8413C8.41454 39.8836 6.56745 37.4177 6.15698 34.9607C5.75479 32.5533 7.04632 30.4456 8.00408 29.6247C10.8773 27.7776 18.309 23.2481 24.8332 18.5363C32.2215 13.2002 30.3744 12.4322 30.3744 4.22293C29.5535 -1.31835 23.1913 -0.0869568 21.9599 0.681001C18.1289 3.28062 9.55355 9.52709 5.33605 11.9688C1.43663 14.2264 0.0684109 17.8521 0 19.7676Z" fill="#FFB742"/>
  <defs>
    <linearGradient id="paint0_linear_4_24" x1="13.9559" y1="25.4489" x2="24.4228" y2="50.0768" gradientUnits="userSpaceOnUse">
      <stop stop-color="#BB842C"/>
      <stop offset="1" stop-color="#FFB742"/>
    </linearGradient>
  </defs>
</svg>
