<svg xmlns="http://www.w3.org/2000/svg" width="32" height="51" viewBox="0 0 32 51" fill="none">
  <path d="M2.88586 2.35985C6.33377 -0.102943 9.65854 1.33369 10.8899 2.35985L16.8417 6.25927L22.1291 10.1587C22.95 10.5692 25.359 12.6215 26.0285 15.2895C26.6541 17.7821 25.4812 21.3097 24.3867 22.4727L16.8417 25.5511L16.4312 25.3459C3.6247 17.9575 0.217836 14.879 0.628302 11.1849L0.628302 7.6959C0.559891 6.39609 0.915627 3.50915 2.88586 2.35985Z" fill="url(#paint0_linear_4_27)" stroke="#FFB742"/>
  <path d="M31.1594 31.2324V20.5603C30.5437 14.3503 22.3344 9.74821 22.1291 10.1587C22.7448 11.1164 24.5919 13.5823 25.0024 16.0393C25.4046 18.4467 24.113 20.5544 23.1553 21.3753C20.282 23.2224 12.8503 27.7519 6.3262 32.4637C-1.06218 37.7998 0.784918 38.5678 0.784918 46.7771C1.60585 52.3184 7.96806 51.087 9.19946 50.319C13.0305 47.7194 21.6058 41.4729 25.8233 39.0312C29.7227 36.7736 31.091 33.1479 31.1594 31.2324Z" fill="#FFB742"/>
  <defs>
    <linearGradient id="paint0_linear_4_27" x1="17.2035" y1="25.5511" x2="6.73665" y2="0.92322" gradientUnits="userSpaceOnUse">
      <stop stop-color="#BB842C"/>
      <stop offset="1" stop-color="#FFB742"/>
    </linearGradient>
  </defs>
</svg>