<svg xmlns="http://www.w3.org/2000/svg" width="20" height="20" viewBox="0 0 20 20" fill="none">
  <path d="M9.163 4.51593C9.581 4.92393 13.665 9.21093 13.665 9.21093C13.7709 9.31307 13.855 9.43548 13.9125 9.57087C13.97 9.70625 13.9997 9.85184 13.9997 9.99893C13.9997 10.146 13.97 10.2916 13.9125 10.427C13.855 10.5624 13.7709 10.6848 13.665 10.7869C13.665 10.7869 9.581 15.0759 9.163 15.4819C8.745 15.8899 7.993 15.9179 7.548 15.4819C7.102 15.0479 7.067 14.4409 7.548 13.9079L11.295 9.99993L7.548 6.09193C7.067 5.55893 7.102 4.95093 7.548 4.51593C7.993 4.07993 8.745 4.10693 9.163 4.51593Z" fill="black"/>
</svg>